<mxfile host="app.diagrams.net" agent="Mozilla/5.0 (Windows NT 10.0; Win64; x64) AppleWebKit/537.36 (KHTML, like Gecko) Chrome/137.0.0.0 Safari/537.36" version="27.1.6">
  <diagram name="Page-1" id="1gMkw-bPNhTU8yi3JMxr">
    <mxGraphModel dx="1042" dy="562" grid="1" gridSize="10" guides="1" tooltips="1" connect="1" arrows="1" fold="1" page="1" pageScale="1" pageWidth="850" pageHeight="1100" math="0" shadow="0">
      <root>
        <mxCell id="0" />
        <mxCell id="1" parent="0" />
        <mxCell id="zmdfV8mUaW3S1naxc9T2-11" value="" style="edgeStyle=orthogonalEdgeStyle;rounded=0;orthogonalLoop=1;jettySize=auto;html=1;" edge="1" parent="1" source="zmdfV8mUaW3S1naxc9T2-10" target="zmdfV8mUaW3S1naxc9T2-2">
          <mxGeometry relative="1" as="geometry" />
        </mxCell>
        <mxCell id="zmdfV8mUaW3S1naxc9T2-10" value="OR" style="rounded=0;whiteSpace=wrap;html=1;" vertex="1" parent="1">
          <mxGeometry x="15" y="220" width="70" height="140" as="geometry" />
        </mxCell>
        <mxCell id="zmdfV8mUaW3S1naxc9T2-1" value="Hybrid Chunking" style="rounded=0;whiteSpace=wrap;html=1;" vertex="1" parent="1">
          <mxGeometry x="268" y="260" width="120" height="60" as="geometry" />
        </mxCell>
        <mxCell id="zmdfV8mUaW3S1naxc9T2-21" value="" style="edgeStyle=orthogonalEdgeStyle;rounded=0;orthogonalLoop=1;jettySize=auto;html=1;" edge="1" parent="1" source="zmdfV8mUaW3S1naxc9T2-2" target="zmdfV8mUaW3S1naxc9T2-1">
          <mxGeometry relative="1" as="geometry" />
        </mxCell>
        <mxCell id="zmdfV8mUaW3S1naxc9T2-2" value="Doc loading and Paragraph&amp;nbsp;Extraction" style="rounded=0;whiteSpace=wrap;html=1;" vertex="1" parent="1">
          <mxGeometry x="117" y="260" width="120" height="60" as="geometry" />
        </mxCell>
        <mxCell id="zmdfV8mUaW3S1naxc9T2-3" value="" style="shape=image;verticalLabelPosition=bottom;labelBackgroundColor=default;verticalAlign=top;aspect=fixed;imageAspect=0;image=data:image/png,iVBORw0KGgoAAAANSUhEUgAAAFAAAABQCAYAAACOEfKtAAAACXBIWXMAAAsTAAALEwEAmpwYAAAC5ElEQVR4nO2ZO4sUURCFv1VZ8JWILhqLin/AwEQDcf+CoCZqpIErJrJgJMJiYOIjNRLBzEBQE8VGNhFBF9+zGoiiIgjiqvgquVADl2aFmW176tZYH1ymb3XRczjT93RPNwRBEARBEARBMHCkoPEYWIczpLDhzkTRYY1bE6UwA2eyzzEcG3gHqAx0jHkzUf5iYDLvtpEOVyZKYUu4yxrggYdMlEINdGOiFJaBdYpfzlJgBroyUQpewi6WszgxsFgTpfAMLH45i4MMLNpEKWwJL2TMlCDcmqZPccyFW2fgQinWwGrAGTh0BnrBXL9YC/CuXyID2zGwigxsZqAXzPWLtQDv+iUysB0Dq8jAZgZ6wVy/WAvwrl8iA9sxsIoMbGagF8z1i7UA7/olMnBwGSjZ+ArcAw7WekaAI/r27DNwF9hb61kMHAdeAt+A+7WeLcAscEnni4Ab+uh+dY/6B4b0ISD1vQamgIvAF61NZD0TWnsGnANe6Xw86zmVvZo8A3R0vifruaK1bcAu3Z5sqL8IA6ez+XatvchqaftTdqZsBH4CN3W+RI1PP8QKra0F3gNXs+Os17Mzfd9z4Akw2lC/eQZKzcDEW+A3sBxYpttpueU8Aj7o9gY9zoUetJ3M9O3oU3+xGThdq70DfgFLMwOv/yMDT2f6xvvU72oJz2a1Tm0Jb5pnCc8Bb4CVWksvxp8Cl7PjbAa+A7eAj7rf1RLu5SIyp7XDWc8BraXcOq/9ab4z65nSWsq1s9qb5vuznmtqYPoBjur+Y8OQgaLjhxpwSG9duozolbijBjwEds9zGzOpF5zubcy+bP9WPatP6HxU9aRbo1U96h8YEv+F2zHQC+b6xVqAd/0S/4XbMbCK54HNDPSCuX6xFuBdv0QGtmNgFRnYzEAvmOsXawHe9UtkYDsGVpGBzQz0grl+sRbgXb9EBrZjYBUZ2MxAL5jrF2sB3vXLkIwwEKcGBkEQBEEQBAH/I38AOep106x0EtYAAAAASUVORK5CYII=;" vertex="1" parent="1">
          <mxGeometry x="20" y="300" width="60" height="60" as="geometry" />
        </mxCell>
        <mxCell id="zmdfV8mUaW3S1naxc9T2-7" value="" style="shape=image;verticalLabelPosition=bottom;labelBackgroundColor=default;verticalAlign=top;aspect=fixed;imageAspect=0;image=data:image/png,iVBORw0KGgoAAAANSUhEUgAAADIAAAAyCAYAAAAeP4ixAAAACXBIWXMAAAsTAAALEwEAmpwYAAABvUlEQVR4nO3YzStEURjH8e94yUshC0JWNiZ/gbJRbGxlTWQnWQplpaztpZQ/wB+grOykGGVP7GSFvD469UzdTvOCueecO9P51enOmTv35TPnOd0zA+UjDtsNMIinSKNgRJur83rDiGNIIbHtd3Adb5A+4MrHyIhjCL4w4gHiBSOeIM4x4hHiFCOeISZOMCEgTjChIKljQkJSxYSGpIbxsdb6ayvUcsG0U+uqOTOQ/0YihDgiTiKxtIil5SQSS4vqpTUFrAIbwDwwnNg3CizrvkVgzDp2Ali32lCoEbmwnrovijPZ0vc+dPsN7CSO3S7x1B4PCfkCmoFp4FMXd0nILDAAXGp/xoKsACPa2kJDijnTb77bgphMav/YgsyleD+pQc6Bd6C1BMSM2ivwkGVITm/YjMaJ7rMhJndafrkE5Cgx2VtCQsxnnnV7D+QrQG4V3lRmsreHhJhR2AWWgK7EPhtiRuENeNR+EbIA9GrLZWWOUAGS1/5plufIbyB72l+rV8g+cKivr4HOeoNsJs7xBBzovyJkEVItHUAP6UTi6pf4w8pJJJYWsbScRGJpEUvLSSSWFg1WWpKxRkNDfgCdI9+VFzhUdwAAAABJRU5ErkJggg==;" vertex="1" parent="1">
          <mxGeometry x="25" y="227" width="50" height="50" as="geometry" />
        </mxCell>
        <mxCell id="zmdfV8mUaW3S1naxc9T2-13" value="Input" style="text;html=1;align=center;verticalAlign=middle;resizable=0;points=[];autosize=1;strokeColor=none;fillColor=none;" vertex="1" parent="1">
          <mxGeometry x="25" y="362" width="50" height="30" as="geometry" />
        </mxCell>
        <mxCell id="zmdfV8mUaW3S1naxc9T2-16" value="" style="group" vertex="1" connectable="0" parent="1">
          <mxGeometry x="445" y="210" width="215" height="159" as="geometry" />
        </mxCell>
        <mxCell id="zmdfV8mUaW3S1naxc9T2-12" value="" style="strokeWidth=2;html=1;shape=mxgraph.flowchart.annotation_2;align=left;labelPosition=right;pointerEvents=1;" vertex="1" parent="zmdfV8mUaW3S1naxc9T2-16">
          <mxGeometry x="-57" y="30" width="50" height="100" as="geometry" />
        </mxCell>
        <mxCell id="zmdfV8mUaW3S1naxc9T2-24" value="" style="edgeStyle=orthogonalEdgeStyle;rounded=0;orthogonalLoop=1;jettySize=auto;html=1;" edge="1" parent="zmdfV8mUaW3S1naxc9T2-16" source="zmdfV8mUaW3S1naxc9T2-14" target="zmdfV8mUaW3S1naxc9T2-22">
          <mxGeometry relative="1" as="geometry" />
        </mxCell>
        <mxCell id="zmdfV8mUaW3S1naxc9T2-14" value="Long ?" style="rounded=0;whiteSpace=wrap;html=1;" vertex="1" parent="zmdfV8mUaW3S1naxc9T2-16">
          <mxGeometry x="-7" y="20" width="80" height="20" as="geometry" />
        </mxCell>
        <mxCell id="zmdfV8mUaW3S1naxc9T2-25" value="" style="edgeStyle=orthogonalEdgeStyle;rounded=0;orthogonalLoop=1;jettySize=auto;html=1;" edge="1" parent="zmdfV8mUaW3S1naxc9T2-16" source="zmdfV8mUaW3S1naxc9T2-15" target="zmdfV8mUaW3S1naxc9T2-23">
          <mxGeometry relative="1" as="geometry" />
        </mxCell>
        <mxCell id="zmdfV8mUaW3S1naxc9T2-15" value="Short ?" style="rounded=0;whiteSpace=wrap;html=1;" vertex="1" parent="zmdfV8mUaW3S1naxc9T2-16">
          <mxGeometry x="-7" y="120" width="80" height="20" as="geometry" />
        </mxCell>
        <mxCell id="zmdfV8mUaW3S1naxc9T2-22" value="NLTK Sentence Tokenize&amp;nbsp;" style="rounded=0;whiteSpace=wrap;html=1;" vertex="1" parent="zmdfV8mUaW3S1naxc9T2-16">
          <mxGeometry x="95" width="120" height="60" as="geometry" />
        </mxCell>
        <mxCell id="zmdfV8mUaW3S1naxc9T2-23" value="Merge to min word count" style="rounded=0;whiteSpace=wrap;html=1;" vertex="1" parent="zmdfV8mUaW3S1naxc9T2-16">
          <mxGeometry x="95" y="100" width="120" height="60" as="geometry" />
        </mxCell>
        <mxCell id="zmdfV8mUaW3S1naxc9T2-26" value="" style="strokeWidth=2;html=1;shape=mxgraph.flowchart.annotation_2;align=left;labelPosition=right;pointerEvents=1;direction=west;" vertex="1" parent="1">
          <mxGeometry x="660" y="240" width="66" height="100" as="geometry" />
        </mxCell>
        <mxCell id="zmdfV8mUaW3S1naxc9T2-28" value="List of Chunks + Metadata" style="rounded=0;whiteSpace=wrap;html=1;" vertex="1" parent="1">
          <mxGeometry x="720" y="260" width="120" height="60" as="geometry" />
        </mxCell>
        <mxCell id="zmdfV8mUaW3S1naxc9T2-29" value="Output" style="text;html=1;align=center;verticalAlign=middle;resizable=0;points=[];autosize=1;strokeColor=none;fillColor=none;" vertex="1" parent="1">
          <mxGeometry x="750" y="362" width="60" height="30" as="geometry" />
        </mxCell>
      </root>
    </mxGraphModel>
  </diagram>
</mxfile>
